<!-- Generated by IcoMoon.io -->
<svg version="1.1" xmlns="http://www.w3.org/2000/svg" width="512" height="512" viewBox="0 0 512 512">
<path fill="#86328a" d="M152.534 325.12h-59.52c-4.713 0-8.534 3.82-8.534 8.534v0 42.666c0 4.48 3.84 8.534 8.534 8.534h59.733v28.16h-74.666c-11.947 0-21.76-9.813-21.76-21.974v-72.32c0-11.947 9.814-21.76 21.974-21.76h74.24zM174.080 246.186c0 12.374-10.026 22.4-22.4 22.4h-95.573v-28.8h80.64c4.713 0 8.534-3.821 8.534-8.534v0-94.933c0-4.713-3.821-8.534-8.534-8.534v0h-43.094c-0.064-0.001-0.138-0.002-0.213-0.002-4.713 0-8.534 3.821-8.534 8.534 0 0.001 0 0.002 0 0.003v0 43.094c0 4.906 3.84 8.534 8.534 8.534h34.56v28.8h-49.493c-12.374 0-22.4-9.814-22.4-22.186v-73.386c0-12.16 10.027-22.186 22.4-22.186h72.96c12.374 0 22.4 10.026 22.4 22.186zM455.68 413.014h-28.16v-87.894h-19.84c-4.713 0-8.534 3.82-8.534 8.534v79.36h-28.373v-87.894h-19.84c-4.713 0-8.534 3.82-8.534 8.534v79.36h-28.373v-94.293c0-11.947 9.813-21.76 21.974-21.76h119.68zM455.894 246.186c0 12.374-10.026 22.4-22.4 22.4h-95.573v-28.8h80.64c4.713 0 8.534-3.821 8.534-8.534v0-94.933c0-4.713-3.82-8.534-8.534-8.534v0h-43.307c-4.713 0-8.534 3.821-8.534 8.534v0 43.094c0 4.906 3.84 8.534 8.534 8.534h34.56v28.8h-49.28c-12.373 0-22.4-9.814-22.4-22.186v-73.386c0-12.16 10.026-22.186 22.4-22.186h73.173c12.373 0 22.4 10.026 22.4 22.186zM292.693 98.987h-73.387c-12.374 0-22.186 10.026-22.186 22.186v73.387c0 12.374 9.814 22.186 22.186 22.186h73.387c12.16 0 22.187-9.814 22.187-22.186v-73.386c0-12.16-10.026-22.186-22.187-22.186zM286.293 136.32v43.094c0 4.713-3.82 8.534-8.534 8.534v0h-43.306c-4.713 0-8.534-3.821-8.534-8.534v0-42.88c0-4.694 3.626-8.534 8.534-8.534h42.88c4.906 0 8.534 3.84 8.96 8.32zM269.44 296.96h-72.32c-12.16 0-21.974 9.813-21.974 21.76v72.32c0 12.16 9.814 21.974 21.974 21.974h72.32c12.16 0 21.974-9.813 21.974-21.974v-72.32c0-11.947-9.813-21.76-21.974-21.76zM263.040 333.654v42.666c0 4.713-3.82 8.534-8.534 8.534v0-0.214h-42.453c-4.713 0-8.534-3.82-8.534-8.534v0-42.454c0-4.694 3.84-8.534 8.534-8.534h42.667c4.693 0 8.534 3.84 8.32 8.534zM501.12 23.466c-6.736-6.846-16.099-11.089-26.452-11.094h-437.334c-0.063-0.001-0.139-0.001-0.214-0.001-20.501 0-37.12 16.619-37.12 37.12 0 0.075 0 0.151 0.001 0.225v-0.011 412.587c-0.001 0.063-0.001 0.139-0.001 0.214 0 20.501 16.619 37.12 37.12 37.12 0.075 0 0.151 0 0.225-0h437.322c0.063 0 0.139 0 0.214 0 20.501 0 37.12-16.619 37.12-37.12 0-0.075 0-0.151-0-0.226v0.012-412.587c0-10.24-4.267-19.627-10.88-26.453zM501.12 462.293c0 0.063 0.001 0.139 0.001 0.214 0 14.492-11.748 26.24-26.24 26.24-0.075 0-0.151-0-0.226-0.001h-437.322c-0.127 0.002-0.277 0.003-0.428 0.003-14.492 0-26.24-11.748-26.24-26.24 0-0.076 0.001-0.152 0.001-0.228v0.012-412.587c-0.001-0.063-0.001-0.139-0.001-0.214 0-14.492 11.748-26.24 26.24-26.24 0.075 0 0.151 0 0.226 0.001h437.322c14.61 0 26.454 11.843 26.454 26.453v0z"></path>
</svg>
