<!-- Generated by IcoMoon.io -->
<svg version="1.1" xmlns="http://www.w3.org/2000/svg" width="512" height="512" viewBox="0 0 512 512">
<path fill="#003082" d="M255.552 0c-134.422 0-244.65 103.68-255.083 235.456l137.216 56.704c11.626-7.914 25.664-12.587 40.79-12.587 1.344 0 2.667 0.086 4.011 0.128l61.035-88.363v-1.258c0-53.227 43.264-96.512 96.512-96.512 53.206 0 96.512 43.328 96.512 96.576s-43.306 96.534-96.512 96.534h-2.24l-86.954 62.101c0 1.11 0.085 2.24 0.085 3.392 0 40-32.32 72.448-72.32 72.448-34.88 0-64.341-25.024-71.061-58.176l-98.24-40.683c30.422 107.456 129.067 186.24 246.25 186.24 141.376 0 255.978-114.624 255.978-256s-114.624-256-255.978-256zM160.853 388.48l-31.424-13.014c5.589 11.584 15.232 21.312 28.032 26.666 27.669 11.498 59.584-1.622 71.082-29.334 5.611-13.44 5.632-28.139 0.107-41.579s-16-23.914-29.376-29.504c-13.312-5.546-27.52-5.312-40.064-0.64l32.49 13.44c20.394 8.534 30.059 32 21.525 52.373-8.47 20.416-31.936 30.080-52.352 21.589zM404.373 190.016c0-35.456-28.864-64.32-64.32-64.32-35.52 0-64.32 28.864-64.32 64.32 0 35.52 28.8 64.32 64.32 64.32 35.478 0 64.32-28.8 64.32-64.32zM291.882 189.91c0-26.709 21.611-48.341 48.32-48.341 26.645 0 48.341 21.632 48.341 48.341 0 26.688-21.696 48.32-48.341 48.32-26.731 0-48.32-21.632-48.32-48.32z"></path>
</svg>
